<svg xmlns="http://www.w3.org/2000/svg" xmlns:xlink="http://www.w3.org/1999/xlink" fill="none" version="1.1" width="32" height="32" viewBox="0 0 32 32"><defs><clipPath id="master_svg0_1_2650"><rect x="0" y="0" width="32" height="32" rx="0"/></clipPath></defs><g clip-path="url(#master_svg0_1_2650)"><g transform="matrix(-1,0,0,1,57.333335876464844,0)"><path d="M53.971567938232425,18.721043505859377C54.00446793823242,18.842243505859376,54.00916793823242,18.970643505859375,53.98376793823242,19.096043505859377C53.940767938232426,19.308743505859375,53.814467938232426,19.495743505859373,53.63276793823242,19.615943505859377L45.86806793823242,24.750243505859373Q44.55836793823242,25.616243505859376,44.05726793823242,25.901743505859375Q43.245967938232425,26.364143505859374,42.58126793823242,26.520143505859377Q41.33336793823242,26.813143505859376,40.08556793823242,26.520143505859377Q39.42076793823242,26.364143505859374,38.60948793823242,25.901743505859375Q38.10841793823242,25.616243505859376,36.79873793823242,24.750243505859373L29.034002938232423,19.615943505859377C28.935151938232423,19.550543505859373,28.851690938232423,19.464643505859375,28.789352938232422,19.364143505859374C28.66520081823242,19.164043505859375,28.638143738232422,18.931543505859374,28.69522463823242,18.721043505859377L30.302327938232423,12.800413505859375Q31.206787938232424,9.468353505859376,31.577467938232424,8.362373505859376Q32.18027793823242,6.5637635058593755,32.815827938232424,6.063999505859375Q33.80276793823242,5.287914705859375,35.10321793823242,5.336167855859375Q36.40367793823242,5.384421605859375,37.32976793823242,6.231490505859375Q37.926127938232426,6.776963505859375,38.39259793823242,8.615253505859375Q38.63716793823242,9.579053505859374,39.14756793823242,12.185553505859374Q39.60716793823242,11.994683505859374,40.011567938232425,11.905233505859375Q41.33336793823242,11.612853505859375,42.655167938232424,11.905233505859375Q43.05956793823242,11.994683505859374,43.51916793823242,12.185553505859374Q44.02956793823242,9.579073505859375,44.274167938232424,8.615253505859375Q44.74066793823242,6.776963505859375,45.33696793823242,6.231490505859375Q46.263067938232425,5.384420405859375,47.563567938232424,5.336167855859375Q48.86396793823242,5.287914105859375,49.85096793823242,6.063997505859375Q50.48646793823242,6.5637635058593755,51.089267938232425,8.362373505859376Q51.459967938232424,9.468443505859376,52.36446793823242,12.800413505859375L53.97086793823242,18.718643505859376L53.971567938232425,18.721043505859377ZM51.841867938232426,17.152743505859377L50.77626793823242,13.227093505859376Q49.88436793823242,9.941033505859375,49.52876793823242,8.880053505859376Q49.08126793823242,7.544813505859375,48.83086793823242,7.347933505859375Q48.319567938232424,6.945833505859375,47.62486793823243,6.971603505859375Q46.93016793823242,6.997383505859375,46.45036793823242,7.436263505859375Q46.21546793823242,7.651153505859375,45.86916793823242,9.015843505859376Q45.613267938232426,10.024133505859375,45.03886793823242,12.985793505859375Q45.51496793823242,13.267983505859375,46.18886793823242,13.681753505859374L51.841867938232426,17.152743505859377ZM44.70636793823242,14.697123505859375Q44.989567938232426,14.868533505859375,45.32486793823242,15.074443505859374L51.65296793823242,18.959943505859375L44.957467938232426,23.387243505859374Q43.69336793823242,24.223143505859376,43.23966793823242,24.481643505859374Q42.63566793823242,24.825843505859375,42.20336793823242,24.927343505859376Q41.33336793823242,25.131643505859376,40.46336793823242,24.927343505859376Q40.03116793823242,24.825843505859375,39.427067938232426,24.481643505859374Q38.973467938232425,24.223143505859376,37.70930793823242,23.387243505859374L31.01380793823242,18.959943505859375L37.34188793823242,15.074443505859374Q37.67729793823242,14.868503505859374,37.96038793823242,14.697123505859375Q38.34892793823242,16.665943505859374,38.53853793823242,17.430843505859375Q38.947167938232425,19.079243505859374,39.466167938232424,19.535643505859376Q40.24986793823242,20.224943505859375,41.33336793823242,20.224943505859375Q42.41686793823242,20.224943505859375,43.20066793823242,19.535643505859376Q43.71956793823242,19.079243505859374,44.128267938232426,17.430843505859375Q44.317867938232425,16.666043505859378,44.70636793823242,14.697123505859375ZM43.19866793823242,13.836843505859376Q42.36526793823242,18.085943505859376,42.111067938232424,18.309543505859374Q41.79396793823242,18.588343505859378,41.33336793823242,18.588343505859378Q40.87276793823242,18.588343505859378,40.55566793823242,18.309543505859374Q40.301567938232424,18.085943505859376,39.468167938232426,13.836843505859376Q39.97936793823242,13.588913505859376,40.36866793823242,13.502803505859376Q41.33336793823242,13.289403505859376,42.298167938232424,13.502803505859376Q42.68746793823242,13.588913505859376,43.19866793823242,13.836843505859376ZM37.62786793823242,12.985803505859375Q37.05347793823242,10.024113505859376,36.797627938232424,9.015843505859376Q36.451327938232424,7.651153505859375,36.21639793823242,7.436263505859375Q35.73657793823242,6.997383505859375,35.04190793823242,6.971603505859375Q34.34724793823242,6.945833505859375,33.835887938232425,7.347933505859375Q33.585527938232424,7.544813505859375,33.13801793823242,8.880053505859376Q32.78245793823242,9.940923505859374,31.890457938232423,13.227093505859376L30.824867938232423,17.152743505859377L36.47792793823242,13.681753505859374Q37.151787938232424,13.267993505859376,37.62786793823242,12.985803505859375Z" fill-rule="evenodd" fill="#FFFFFF" fill-opacity="1"/></g></g></svg>