<svg xmlns="http://www.w3.org/2000/svg" xmlns:xlink="http://www.w3.org/1999/xlink" fill="none" version="1.1" width="1024" height="1024" viewBox="0 0 1024 1024"><defs><clipPath id="master_svg0_117_508"><rect x="0" y="0" width="1024" height="1024" rx="0"/></clipPath></defs><g clip-path="url(#master_svg0_117_508)"><g><g><path d="M500.84066729187964,469.0194091796875L193.99996729187967,469.0194091796875C152.00746729187966,469.0194091796875,117.61910729187966,501.5173091796875,114.70067495683965,542.6914091796875C119.27740729187965,642.2204091796875,201.56666729187964,721.5094091796875,302.4086672918796,721.5094091796875L439.72766729187964,721.5094091796875L508.92866729187966,479.7500091796875C510.46766729187965,474.3736491796875,506.43166729187965,469.0194091796875,500.84066729187964,469.0194091796875Z" fill-rule="evenodd" fill="#0059D1" fill-opacity="1"/></g><g><path d="M114.5,533.945556640625C114.5,637.5345566406249,198.6298,721.509556640625,302.409,721.509556640625L901.542,721.509556640625C905.529,721.509556640625,908.407,725.3275566406251,907.31,729.160556640625L838.887,968.201556640625C837.904,971.6345566406251,834.766,973.999556640625,831.196,973.999556640625L302.409,973.999556640625C198.6298,973.999556640625,114.5,890.024556640625,114.5,786.435556640625L114.5,533.945556640625Z" fill-rule="evenodd" fill="#34A8FF" fill-opacity="1"/></g><g><path d="M500.840667604804,50L193.99996760480406,50C152.00746760480405,50,117.61910760480404,82.4979,114.70067526976403,123.672C119.27740760480404,223.201,201.56666760480402,302.49,302.408667604804,302.49L439.727667604804,302.49L508.92866760480405,60.7306C510.46766760480403,55.35424,506.43166760480403,50,500.840667604804,50Z" fill-rule="evenodd" fill="#03BAB1" fill-opacity="1"/></g><g><path d="M114.5,114.92608642578125C114.5,218.51508642578125,198.6298,302.4900864257812,302.409,302.4900864257812L793.133,302.4900864257812C797.12,302.4900864257812,799.998,306.30808642578126,798.901,310.1410864257813L730.478,549.1820864257812C729.495,552.6150864257813,726.357,554.9800864257812,722.787,554.9800864257812L302.409,554.9800864257812C198.6298,554.9800864257812,114.5,471.00508642578126,114.5,367.41608642578126L114.5,114.92608642578125Z" fill-rule="evenodd" fill="#60EDD2" fill-opacity="1"/></g></g></g></svg>