<svg xmlns="http://www.w3.org/2000/svg" xmlns:xlink="http://www.w3.org/1999/xlink" fill="none" version="1.1" width="512" height="512" viewBox="0 0 512 512"><defs><clipPath id="master_svg0_1_766"><rect x="0" y="0" width="512" height="512" rx="0"/></clipPath></defs><g clip-path="url(#master_svg0_1_766)"><g transform="matrix(-1,0,0,1,917.33349609375,0)"><path d="M863.5447480468749,299.53731298828126C864.071748046875,301.4763129882813,864.146748046875,303.5293129882813,863.7407480468751,305.5363129882812C863.051748046875,308.9403129882812,861.031748046875,311.93231298828124,858.1247480468751,313.8543129882812L733.888748046875,396.00331298828127Q712.933748046875,409.85931298828126,704.916748046875,414.4283129882813Q691.935748046875,421.82531298828127,681.299748046875,424.3223129882812Q661.334748046875,429.01031298828127,641.368748046875,424.3223129882812Q630.732748046875,421.82531298828127,617.751748046875,414.4283129882813Q609.734748046875,409.85931298828126,588.779748046875,396.00331298828127L464.544108046875,313.8543129882812C462.962488046875,312.8083129882813,461.627128046875,311.43431298828125,460.629718046875,309.82631298828124C458.643274146875,306.62431298828125,458.210361046875,302.9043129882813,459.123655046875,299.53731298828126L484.837348046875,204.80631298828126Q499.308648046875,151.49351298828125,505.23954804687503,133.79781298828124Q514.884548046875,105.02001298828125,525.053248046875,97.02381298828125Q540.844348046875,84.60645198828125,561.651748046875,85.37850268828124Q582.458748046875,86.15056298828125,597.276748046875,99.70371298828125Q606.8177480468751,108.43121298828125,614.281748046875,137.84381298828126Q618.194748046875,153.26471298828125,626.360748046875,194.96831298828124Q633.715748046875,191.91531298828124,640.185748046875,190.48331298828126Q661.334748046875,185.80531298828123,682.482748046875,190.48331298828126Q688.953748046875,191.91531298828124,696.307748046875,194.96831298828124Q704.473748046875,153.26501298828126,708.386748046875,137.84381298828126Q715.850748046875,108.43121298828125,725.391748046875,99.70361298828125Q740.209748046875,86.15054298828125,761.016748046875,85.37850268828124Q781.8237480468749,84.60644198828125,797.614748046875,97.02381298828125Q807.783748046875,105.01991298828125,817.428748046875,133.79781298828124Q823.359748046875,151.49481298828124,837.830748046875,204.80631298828126L863.533748046875,299.49731298828124L863.5447480468749,299.53731298828126ZM829.470748046875,274.44431298828124L812.420748046875,211.63331298828126Q798.149748046875,159.05631298828126,792.459748046875,142.08061298828125Q785.299748046875,120.71681298828125,781.293748046875,117.56681298828124Q773.112748046875,111.13311298828125,761.997748046875,111.54551298828125Q750.882748046875,111.95791298828125,743.205748046875,118.98011298828125Q739.446748046875,122.41821298828125,733.906748046875,144.25331298828127Q729.812748046875,160.38591298828123,720.622748046875,207.77231298828124Q728.239748046875,212.28731298828126,739.021748046875,218.90831298828124L829.470748046875,274.44431298828124ZM715.302748046875,235.15331298828124Q719.8327480468749,237.89631298828124,725.1987480468749,241.19131298828125L826.447748046875,303.3583129882812L719.319748046875,374.1953129882813Q699.0927480468749,387.5703129882813,691.834748046875,391.70631298828124Q682.1697480468749,397.21331298828125,675.253748046875,398.83731298828127Q661.334748046875,402.1063129882813,647.414748046875,398.83731298828127Q640.498748046875,397.21331298828125,630.833748046875,391.70631298828124Q623.575748046875,387.5703129882813,603.348748046875,374.1953129882813L496.220948046875,303.3583129882812L597.470748046875,241.19131298828125Q602.836748046875,237.89531298828126,607.3657480468751,235.15431298828125Q613.5827480468749,266.65531298828125,616.616748046875,278.89331298828125Q623.154748046875,305.2673129882812,631.458748046875,312.5703129882812Q643.998748046875,323.5993129882812,661.333748046875,323.5993129882812Q678.6697480468749,323.5993129882812,691.209748046875,312.5703129882812Q699.513748046875,305.2673129882812,706.051748046875,278.89331298828125Q709.085748046875,266.65631298828123,715.302748046875,235.15331298828124ZM691.178748046875,221.38931298828126Q677.843748046875,289.3753129882813,673.777748046875,292.95131298828124Q668.703748046875,297.4133129882813,661.333748046875,297.4133129882813Q653.964748046875,297.4133129882813,648.8907480468749,292.95131298828124Q644.824748046875,289.3753129882813,631.4907480468751,221.38931298828126Q639.6697480468749,217.42231298828125,645.898748046875,216.04431298828126Q661.334748046875,212.63031298828125,676.770748046875,216.04431298828126Q682.998748046875,217.42231298828125,691.178748046875,221.38931298828126ZM602.045748046875,207.77231298828124Q592.855748046875,160.38571298828126,588.761748046875,144.25331298828127Q583.2217480468751,122.41821298828125,579.462748046875,118.98011298828125Q571.7847480468749,111.95791298828125,560.670748046875,111.54551298828125Q549.555948046875,111.13311298828125,541.374348046875,117.56681298828124Q537.368448046875,120.71681298828125,530.208248046875,142.08061298828125Q524.5193480468749,159.05461298828124,510.247348046875,211.63331298828126L493.197848046875,274.44431298828124L583.646748046875,218.90831298828124Q594.428748046875,212.28731298828126,602.045748046875,207.77231298828124Z" fill-rule="evenodd" fill="#000000" fill-opacity="1"/></g></g></svg>