<svg xmlns="http://www.w3.org/2000/svg" xmlns:xlink="http://www.w3.org/1999/xlink" fill="none" version="1.1" width="1024" height="1024" viewBox="0 0 1024 1024"><defs><clipPath id="master_svg0_117_514"><rect x="0" y="0" width="1024" height="1024" rx="0"/></clipPath></defs><g clip-path="url(#master_svg0_117_514)"><g><path d="M500.84068359375,469.0194091796875L193.99998359375002,469.0194091796875C152.00748359375,469.0194091796875,117.61912359375,501.5173091796875,114.70069125871,542.6914091796875C119.27742359375,642.2204091796875,201.56668359374999,721.5094091796875,302.40868359374997,721.5094091796875L439.72768359375,721.5094091796875L508.92868359375,479.7500091796875C510.46768359375,474.3736491796875,506.43168359375,469.0194091796875,500.84068359375,469.0194091796875Z" fill-rule="evenodd" fill="#000000" fill-opacity="0.30000001192092896"/></g><g><path d="M114.5,533.945556640625C114.5,637.5345566406249,198.6298,721.509556640625,302.409,721.509556640625L901.542,721.509556640625C905.529,721.509556640625,908.407,725.3275566406251,907.31,729.160556640625L838.887,968.201556640625C837.904,971.6345566406251,834.766,973.999556640625,831.196,973.999556640625L302.409,973.999556640625C198.6298,973.999556640625,114.5,890.024556640625,114.5,786.435556640625L114.5,533.945556640625Z" fill-rule="evenodd" fill="#000000" fill-opacity="1"/></g><g><path d="M500.84068359375,50L193.99998359375002,50C152.00748359375,50,117.61912359375,82.4979,114.70069125871,123.672C119.27742359375,223.201,201.56668359374999,302.49,302.40868359374997,302.49L439.72768359375,302.49L508.92868359375,60.7306C510.46768359375,55.35424,506.43168359375,50,500.84068359375,50Z" fill-rule="evenodd" fill="#000000" fill-opacity="0.30000001192092896"/></g><g><path d="M114.5,114.92608642578125C114.5,218.51508642578125,198.6298,302.4900864257812,302.409,302.4900864257812L793.133,302.4900864257812C797.12,302.4900864257812,799.998,306.30808642578126,798.901,310.1410864257813L730.478,549.1820864257812C729.495,552.6150864257813,726.357,554.9800864257812,722.787,554.9800864257812L302.409,554.9800864257812C198.6298,554.9800864257812,114.5,471.00508642578126,114.5,367.41608642578126L114.5,114.92608642578125Z" fill-rule="evenodd" fill="#000000" fill-opacity="1"/></g></g></svg>